<svg width="38" height="32" viewBox="0 0 38 32" fill="none" xmlns="http://www.w3.org/2000/svg">
<path id="Vector" d="M27.7963 0C24.0244 0 20.7733 1.77217 19 4.70782C17.2267 1.77217 13.9756 0 10.2037 0C7.49851 0.0032217 4.90505 1.06699 2.9922 2.95796C1.07934 4.84893 0.00325899 7.41272 0 10.087C0 15.0591 3.16667 20.2556 9.39444 25.5287C12.27 27.9476 15.3748 30.0868 18.6657 31.9165C18.7684 31.9713 18.8833 32 19 32C19.1167 32 19.2316 31.9713 19.3343 31.9165C22.6252 30.0868 25.73 27.9476 28.6056 25.5287C34.8333 20.2556 38 15.0591 38 10.087C37.9967 7.41272 36.9207 4.84893 35.0078 2.95796C33.0949 1.06699 30.5015 0.0032217 27.7963 0ZM19 30.5078C16.537 29.1235 1.40741 20.1861 1.40741 10.087C1.4102 7.78157 2.33785 5.5714 3.98687 3.94125C5.63589 2.3111 7.87164 1.39407 10.2037 1.3913C13.9175 1.3913 17.0384 3.35826 18.3491 6.52348C18.4021 6.65107 18.4923 6.7602 18.6082 6.837C18.7241 6.9138 18.8605 6.9548 19 6.9548C19.1395 6.9548 19.2759 6.9138 19.3918 6.837C19.5077 6.7602 19.5979 6.65107 19.6509 6.52348C20.9616 3.35826 24.0825 1.3913 27.7963 1.3913C30.1284 1.39407 32.3641 2.3111 34.0131 3.94125C35.6622 5.5714 36.5898 7.78157 36.5926 10.087C36.5926 20.1739 21.463 29.1235 19 30.5078Z" fill="black"/>
</svg>
